<?xml version="1.0" standalone="no"?>
 <!DOCTYPE svg PUBLIC "-//W3C//DTD SVG 1.1//EN" 
 "http://www.w3.org/Graphics/SVG/1.1/DTD/svg11.dtd"> 
<svg
  xmlns:svg="http://www.w3.org/2000/svg"
  xmlns="http://www.w3.org/2000/svg"
  xmlns:xlink="http://www.w3.org/1999/xlink"
  version="1.1"
  width="419.9890mm" height="297.0022mm" viewBox="0.0000 0.0000 419.9890 297.0022">
<title>SVG Image created as amp.svg date 2025/03/06 20:08:37 </title>
  <desc>Image generated by Eeschema-SVG </desc>
<g style="fill:#000000; fill-opacity:1.0000;stroke:#000000; stroke-opacity:1.0000;
stroke-linecap:round; stroke-linejoin:round;"
 transform="translate(0 0) scale(1 1)">
</g>
<g style="fill:#F5F4EF; fill-opacity:1.0000; 
stroke:#F5F4EF; stroke-width:0.0001; stroke-opacity:1; 
stroke-linecap:round; stroke-linejoin:round;">
<rect x="0.000000" y="0.000000" width="419.989000" height="297.002200" rx="0.000000" />
</g>
<g style="fill:none; 
stroke:#840000; stroke-width:0.1524; stroke-opacity:1; 
stroke-linecap:round; stroke-linejoin:round;">
<path d="M299.9890 253.0022
L407.9890 253.0022
L407.9890 285.0022
L299.9890 285.0022
L299.9890 253.0022
" />
<path d="M10.0000 10.0000
L409.9890 10.0000
L409.9890 287.0022
L10.0000 287.0022
L10.0000 10.0000
" />
<path d="M12.0000 12.0000
L407.9890 12.0000
L407.9890 285.0022
L12.0000 285.0022
L12.0000 12.0000
" />
<path d="M60.0000 12.0000
L60.0000 10.0000
" />
<path d="M110.0000 12.0000
L110.0000 10.0000
" />
<path d="M160.0000 12.0000
L160.0000 10.0000
" />
<path d="M210.0000 12.0000
L210.0000 10.0000
" />
<path d="M260.0000 12.0000
L260.0000 10.0000
" />
<path d="M310.0000 12.0000
L310.0000 10.0000
" />
<path d="M360.0000 12.0000
L360.0000 10.0000
" />
<text x="35.0000" y="11.6500"
textLength="1.4353" font-size="1.7333" lengthAdjust="spacingAndGlyphs"
text-anchor="start" opacity="0" stroke-opacity="0">1</text>
<g class="stroked-text"><desc>1</desc>
<path d="M36.0906 11.5935
L35.3478 11.5935
" />
<path d="M35.7192 11.5935
L35.7192 10.2935
" />
<path d="M35.7192 10.2935
L35.5954 10.4792
" />
<path d="M35.5954 10.4792
L35.4716 10.6030
" />
<path d="M35.4716 10.6030
L35.3478 10.6649
" />
</g><text x="85.0000" y="11.6500"
textLength="1.4353" font-size="1.7333" lengthAdjust="spacingAndGlyphs"
text-anchor="start" opacity="0" stroke-opacity="0">2</text>
<g class="stroked-text"><desc>2</desc>
<path d="M85.3478 10.4173
L85.4097 10.3554
" />
<path d="M85.4097 10.3554
L85.5335 10.2935
" />
<path d="M85.5335 10.2935
L85.8430 10.2935
" />
<path d="M85.8430 10.2935
L85.9668 10.3554
" />
<path d="M85.9668 10.3554
L86.0287 10.4173
" />
<path d="M86.0287 10.4173
L86.0906 10.5411
" />
<path d="M86.0906 10.5411
L86.0906 10.6649
" />
<path d="M86.0906 10.6649
L86.0287 10.8506
" />
<path d="M86.0287 10.8506
L85.2859 11.5935
" />
<path d="M85.2859 11.5935
L86.0906 11.5935
" />
</g><text x="135.0000" y="11.6500"
textLength="1.4353" font-size="1.7333" lengthAdjust="spacingAndGlyphs"
text-anchor="start" opacity="0" stroke-opacity="0">3</text>
<g class="stroked-text"><desc>3</desc>
<path d="M135.2859 10.2935
L136.0906 10.2935
" />
<path d="M136.0906 10.2935
L135.6573 10.7887
" />
<path d="M135.6573 10.7887
L135.8430 10.7887
" />
<path d="M135.8430 10.7887
L135.9668 10.8506
" />
<path d="M135.9668 10.8506
L136.0287 10.9125
" />
<path d="M136.0287 10.9125
L136.0906 11.0363
" />
<path d="M136.0906 11.0363
L136.0906 11.3458
" />
<path d="M136.0906 11.3458
L136.0287 11.4696
" />
<path d="M136.0287 11.4696
L135.9668 11.5316
" />
<path d="M135.9668 11.5316
L135.8430 11.5935
" />
<path d="M135.8430 11.5935
L135.4716 11.5935
" />
<path d="M135.4716 11.5935
L135.3478 11.5316
" />
<path d="M135.3478 11.5316
L135.2859 11.4696
" />
</g><text x="185.0000" y="11.6500"
textLength="1.4353" font-size="1.7333" lengthAdjust="spacingAndGlyphs"
text-anchor="start" opacity="0" stroke-opacity="0">4</text>
<g class="stroked-text"><desc>4</desc>
<path d="M185.9668 10.7268
L185.9668 11.5935
" />
<path d="M185.6573 10.2316
L185.3478 11.1601
" />
<path d="M185.3478 11.1601
L186.1525 11.1601
" />
</g><text x="235.0000" y="11.6500"
textLength="1.4353" font-size="1.7333" lengthAdjust="spacingAndGlyphs"
text-anchor="start" opacity="0" stroke-opacity="0">5</text>
<g class="stroked-text"><desc>5</desc>
<path d="M236.0287 10.2935
L235.4097 10.2935
" />
<path d="M235.4097 10.2935
L235.3478 10.9125
" />
<path d="M235.3478 10.9125
L235.4097 10.8506
" />
<path d="M235.4097 10.8506
L235.5335 10.7887
" />
<path d="M235.5335 10.7887
L235.8430 10.7887
" />
<path d="M235.8430 10.7887
L235.9668 10.8506
" />
<path d="M235.9668 10.8506
L236.0287 10.9125
" />
<path d="M236.0287 10.9125
L236.0906 11.0363
" />
<path d="M236.0906 11.0363
L236.0906 11.3458
" />
<path d="M236.0906 11.3458
L236.0287 11.4696
" />
<path d="M236.0287 11.4696
L235.9668 11.5316
" />
<path d="M235.9668 11.5316
L235.8430 11.5935
" />
<path d="M235.8430 11.5935
L235.5335 11.5935
" />
<path d="M235.5335 11.5935
L235.4097 11.5316
" />
<path d="M235.4097 11.5316
L235.3478 11.4696
" />
</g><text x="285.0000" y="11.6500"
textLength="1.4353" font-size="1.7333" lengthAdjust="spacingAndGlyphs"
text-anchor="start" opacity="0" stroke-opacity="0">6</text>
<g class="stroked-text"><desc>6</desc>
<path d="M285.9668 10.2935
L285.7192 10.2935
" />
<path d="M285.7192 10.2935
L285.5954 10.3554
" />
<path d="M285.5954 10.3554
L285.5335 10.4173
" />
<path d="M285.5335 10.4173
L285.4097 10.6030
" />
<path d="M285.4097 10.6030
L285.3478 10.8506
" />
<path d="M285.3478 10.8506
L285.3478 11.3458
" />
<path d="M285.3478 11.3458
L285.4097 11.4696
" />
<path d="M285.4097 11.4696
L285.4716 11.5316
" />
<path d="M285.4716 11.5316
L285.5954 11.5935
" />
<path d="M285.5954 11.5935
L285.8430 11.5935
" />
<path d="M285.8430 11.5935
L285.9668 11.5316
" />
<path d="M285.9668 11.5316
L286.0287 11.4696
" />
<path d="M286.0287 11.4696
L286.0906 11.3458
" />
<path d="M286.0906 11.3458
L286.0906 11.0363
" />
<path d="M286.0906 11.0363
L286.0287 10.9125
" />
<path d="M286.0287 10.9125
L285.9668 10.8506
" />
<path d="M285.9668 10.8506
L285.8430 10.7887
" />
<path d="M285.8430 10.7887
L285.5954 10.7887
" />
<path d="M285.5954 10.7887
L285.4716 10.8506
" />
<path d="M285.4716 10.8506
L285.4097 10.9125
" />
<path d="M285.4097 10.9125
L285.3478 11.0363
" />
</g><text x="335.0000" y="11.6500"
textLength="1.4353" font-size="1.7333" lengthAdjust="spacingAndGlyphs"
text-anchor="start" opacity="0" stroke-opacity="0">7</text>
<g class="stroked-text"><desc>7</desc>
<path d="M335.2859 10.2935
L336.1525 10.2935
" />
<path d="M336.1525 10.2935
L335.5954 11.5935
" />
</g><text x="385.0000" y="11.6500"
textLength="1.4353" font-size="1.7333" lengthAdjust="spacingAndGlyphs"
text-anchor="start" opacity="0" stroke-opacity="0">8</text>
<g class="stroked-text"><desc>8</desc>
<path d="M385.5954 10.8506
L385.4716 10.7887
" />
<path d="M385.4716 10.7887
L385.4097 10.7268
" />
<path d="M385.4097 10.7268
L385.3478 10.6030
" />
<path d="M385.3478 10.6030
L385.3478 10.5411
" />
<path d="M385.3478 10.5411
L385.4097 10.4173
" />
<path d="M385.4097 10.4173
L385.4716 10.3554
" />
<path d="M385.4716 10.3554
L385.5954 10.2935
" />
<path d="M385.5954 10.2935
L385.8430 10.2935
" />
<path d="M385.8430 10.2935
L385.9668 10.3554
" />
<path d="M385.9668 10.3554
L386.0287 10.4173
" />
<path d="M386.0287 10.4173
L386.0906 10.5411
" />
<path d="M386.0906 10.5411
L386.0906 10.6030
" />
<path d="M386.0906 10.6030
L386.0287 10.7268
" />
<path d="M386.0287 10.7268
L385.9668 10.7887
" />
<path d="M385.9668 10.7887
L385.8430 10.8506
" />
<path d="M385.8430 10.8506
L385.5954 10.8506
" />
<path d="M385.5954 10.8506
L385.4716 10.9125
" />
<path d="M385.4716 10.9125
L385.4097 10.9744
" />
<path d="M385.4097 10.9744
L385.3478 11.0982
" />
<path d="M385.3478 11.0982
L385.3478 11.3458
" />
<path d="M385.3478 11.3458
L385.4097 11.4696
" />
<path d="M385.4097 11.4696
L385.4716 11.5316
" />
<path d="M385.4716 11.5316
L385.5954 11.5935
" />
<path d="M385.5954 11.5935
L385.8430 11.5935
" />
<path d="M385.8430 11.5935
L385.9668 11.5316
" />
<path d="M385.9668 11.5316
L386.0287 11.4696
" />
<path d="M386.0287 11.4696
L386.0906 11.3458
" />
<path d="M386.0906 11.3458
L386.0906 11.0982
" />
<path d="M386.0906 11.0982
L386.0287 10.9744
" />
<path d="M386.0287 10.9744
L385.9668 10.9125
" />
<path d="M385.9668 10.9125
L385.8430 10.8506
" />
</g><path d="M60.0000 285.0022
L60.0000 287.0022
" />
<path d="M110.0000 285.0022
L110.0000 287.0022
" />
<path d="M160.0000 285.0022
L160.0000 287.0022
" />
<path d="M210.0000 285.0022
L210.0000 287.0022
" />
<path d="M260.0000 285.0022
L260.0000 287.0022
" />
<path d="M310.0000 285.0022
L310.0000 287.0022
" />
<path d="M360.0000 285.0022
L360.0000 287.0022
" />
<text x="35.0000" y="286.6522"
textLength="1.4353" font-size="1.7333" lengthAdjust="spacingAndGlyphs"
text-anchor="start" opacity="0" stroke-opacity="0">1</text>
<g class="stroked-text"><desc>1</desc>
<path d="M36.0906 286.5957
L35.3478 286.5957
" />
<path d="M35.7192 286.5957
L35.7192 285.2957
" />
<path d="M35.7192 285.2957
L35.5954 285.4814
" />
<path d="M35.5954 285.4814
L35.4716 285.6052
" />
<path d="M35.4716 285.6052
L35.3478 285.6671
" />
</g><text x="85.0000" y="286.6522"
textLength="1.4353" font-size="1.7333" lengthAdjust="spacingAndGlyphs"
text-anchor="start" opacity="0" stroke-opacity="0">2</text>
<g class="stroked-text"><desc>2</desc>
<path d="M85.3478 285.4195
L85.4097 285.3576
" />
<path d="M85.4097 285.3576
L85.5335 285.2957
" />
<path d="M85.5335 285.2957
L85.8430 285.2957
" />
<path d="M85.8430 285.2957
L85.9668 285.3576
" />
<path d="M85.9668 285.3576
L86.0287 285.4195
" />
<path d="M86.0287 285.4195
L86.0906 285.5433
" />
<path d="M86.0906 285.5433
L86.0906 285.6671
" />
<path d="M86.0906 285.6671
L86.0287 285.8528
" />
<path d="M86.0287 285.8528
L85.2859 286.5957
" />
<path d="M85.2859 286.5957
L86.0906 286.5957
" />
</g><text x="135.0000" y="286.6522"
textLength="1.4353" font-size="1.7333" lengthAdjust="spacingAndGlyphs"
text-anchor="start" opacity="0" stroke-opacity="0">3</text>
<g class="stroked-text"><desc>3</desc>
<path d="M135.2859 285.2957
L136.0906 285.2957
" />
<path d="M136.0906 285.2957
L135.6573 285.7909
" />
<path d="M135.6573 285.7909
L135.8430 285.7909
" />
<path d="M135.8430 285.7909
L135.9668 285.8528
" />
<path d="M135.9668 285.8528
L136.0287 285.9147
" />
<path d="M136.0287 285.9147
L136.0906 286.0385
" />
<path d="M136.0906 286.0385
L136.0906 286.3480
" />
<path d="M136.0906 286.3480
L136.0287 286.4718
" />
<path d="M136.0287 286.4718
L135.9668 286.5338
" />
<path d="M135.9668 286.5338
L135.8430 286.5957
" />
<path d="M135.8430 286.5957
L135.4716 286.5957
" />
<path d="M135.4716 286.5957
L135.3478 286.5338
" />
<path d="M135.3478 286.5338
L135.2859 286.4718
" />
</g><text x="185.0000" y="286.6522"
textLength="1.4353" font-size="1.7333" lengthAdjust="spacingAndGlyphs"
text-anchor="start" opacity="0" stroke-opacity="0">4</text>
<g class="stroked-text"><desc>4</desc>
<path d="M185.9668 285.7290
L185.9668 286.5957
" />
<path d="M185.6573 285.2338
L185.3478 286.1623
" />
<path d="M185.3478 286.1623
L186.1525 286.1623
" />
</g><text x="235.0000" y="286.6522"
textLength="1.4353" font-size="1.7333" lengthAdjust="spacingAndGlyphs"
text-anchor="start" opacity="0" stroke-opacity="0">5</text>
<g class="stroked-text"><desc>5</desc>
<path d="M236.0287 285.2957
L235.4097 285.2957
" />
<path d="M235.4097 285.2957
L235.3478 285.9147
" />
<path d="M235.3478 285.9147
L235.4097 285.8528
" />
<path d="M235.4097 285.8528
L235.5335 285.7909
" />
<path d="M235.5335 285.7909
L235.8430 285.7909
" />
<path d="M235.8430 285.7909
L235.9668 285.8528
" />
<path d="M235.9668 285.8528
L236.0287 285.9147
" />
<path d="M236.0287 285.9147
L236.0906 286.0385
" />
<path d="M236.0906 286.0385
L236.0906 286.3480
" />
<path d="M236.0906 286.3480
L236.0287 286.4718
" />
<path d="M236.0287 286.4718
L235.9668 286.5338
" />
<path d="M235.9668 286.5338
L235.8430 286.5957
" />
<path d="M235.8430 286.5957
L235.5335 286.5957
" />
<path d="M235.5335 286.5957
L235.4097 286.5338
" />
<path d="M235.4097 286.5338
L235.3478 286.4718
" />
</g><text x="285.0000" y="286.6522"
textLength="1.4353" font-size="1.7333" lengthAdjust="spacingAndGlyphs"
text-anchor="start" opacity="0" stroke-opacity="0">6</text>
<g class="stroked-text"><desc>6</desc>
<path d="M285.9668 285.2957
L285.7192 285.2957
" />
<path d="M285.7192 285.2957
L285.5954 285.3576
" />
<path d="M285.5954 285.3576
L285.5335 285.4195
" />
<path d="M285.5335 285.4195
L285.4097 285.6052
" />
<path d="M285.4097 285.6052
L285.3478 285.8528
" />
<path d="M285.3478 285.8528
L285.3478 286.3480
" />
<path d="M285.3478 286.3480
L285.4097 286.4718
" />
<path d="M285.4097 286.4718
L285.4716 286.5338
" />
<path d="M285.4716 286.5338
L285.5954 286.5957
" />
<path d="M285.5954 286.5957
L285.8430 286.5957
" />
<path d="M285.8430 286.5957
L285.9668 286.5338
" />
<path d="M285.9668 286.5338
L286.0287 286.4718
" />
<path d="M286.0287 286.4718
L286.0906 286.3480
" />
<path d="M286.0906 286.3480
L286.0906 286.0385
" />
<path d="M286.0906 286.0385
L286.0287 285.9147
" />
<path d="M286.0287 285.9147
L285.9668 285.8528
" />
<path d="M285.9668 285.8528
L285.8430 285.7909
" />
<path d="M285.8430 285.7909
L285.5954 285.7909
" />
<path d="M285.5954 285.7909
L285.4716 285.8528
" />
<path d="M285.4716 285.8528
L285.4097 285.9147
" />
<path d="M285.4097 285.9147
L285.3478 286.0385
" />
</g><text x="335.0000" y="286.6522"
textLength="1.4353" font-size="1.7333" lengthAdjust="spacingAndGlyphs"
text-anchor="start" opacity="0" stroke-opacity="0">7</text>
<g class="stroked-text"><desc>7</desc>
<path d="M335.2859 285.2957
L336.1525 285.2957
" />
<path d="M336.1525 285.2957
L335.5954 286.5957
" />
</g><text x="385.0000" y="286.6522"
textLength="1.4353" font-size="1.7333" lengthAdjust="spacingAndGlyphs"
text-anchor="start" opacity="0" stroke-opacity="0">8</text>
<g class="stroked-text"><desc>8</desc>
<path d="M385.5954 285.8528
L385.4716 285.7909
" />
<path d="M385.4716 285.7909
L385.4097 285.7290
" />
<path d="M385.4097 285.7290
L385.3478 285.6052
" />
<path d="M385.3478 285.6052
L385.3478 285.5433
" />
<path d="M385.3478 285.5433
L385.4097 285.4195
" />
<path d="M385.4097 285.4195
L385.4716 285.3576
" />
<path d="M385.4716 285.3576
L385.5954 285.2957
" />
<path d="M385.5954 285.2957
L385.8430 285.2957
" />
<path d="M385.8430 285.2957
L385.9668 285.3576
" />
<path d="M385.9668 285.3576
L386.0287 285.4195
" />
<path d="M386.0287 285.4195
L386.0906 285.5433
" />
<path d="M386.0906 285.5433
L386.0906 285.6052
" />
<path d="M386.0906 285.6052
L386.0287 285.7290
" />
<path d="M386.0287 285.7290
L385.9668 285.7909
" />
<path d="M385.9668 285.7909
L385.8430 285.8528
" />
<path d="M385.8430 285.8528
L385.5954 285.8528
" />
<path d="M385.5954 285.8528
L385.4716 285.9147
" />
<path d="M385.4716 285.9147
L385.4097 285.9766
" />
<path d="M385.4097 285.9766
L385.3478 286.1004
" />
<path d="M385.3478 286.1004
L385.3478 286.3480
" />
<path d="M385.3478 286.3480
L385.4097 286.4718
" />
<path d="M385.4097 286.4718
L385.4716 286.5338
" />
<path d="M385.4716 286.5338
L385.5954 286.5957
" />
<path d="M385.5954 286.5957
L385.8430 286.5957
" />
<path d="M385.8430 286.5957
L385.9668 286.5338
" />
<path d="M385.9668 286.5338
L386.0287 286.4718
" />
<path d="M386.0287 286.4718
L386.0906 286.3480
" />
<path d="M386.0906 286.3480
L386.0906 286.1004
" />
<path d="M386.0906 286.1004
L386.0287 285.9766
" />
<path d="M386.0287 285.9766
L385.9668 285.9147
" />
<path d="M385.9668 285.9147
L385.8430 285.8528
" />
</g><path d="M10.0000 60.0000
L12.0000 60.0000
" />
<path d="M10.0000 110.0000
L12.0000 110.0000
" />
<path d="M10.0000 160.0000
L12.0000 160.0000
" />
<path d="M10.0000 210.0000
L12.0000 210.0000
" />
<path d="M10.0000 260.0000
L12.0000 260.0000
" />
<text x="11.0000" y="35.6500"
textLength="1.3115" font-size="1.7333" lengthAdjust="spacingAndGlyphs"
text-anchor="middle" opacity="0" stroke-opacity="0">A</text>
<g class="stroked-text"><desc>A</desc>
<path d="M10.6905 35.2220
L11.3095 35.2220
" />
<path d="M10.5667 35.5935
L11.0000 34.2935
" />
<path d="M11.0000 34.2935
L11.4333 35.5935
" />
</g><text x="11.0000" y="85.6500"
textLength="1.4972" font-size="1.7333" lengthAdjust="spacingAndGlyphs"
text-anchor="middle" opacity="0" stroke-opacity="0">B</text>
<g class="stroked-text"><desc>B</desc>
<path d="M11.0928 84.9125
L11.2785 84.9744
" />
<path d="M11.2785 84.9744
L11.3404 85.0363
" />
<path d="M11.3404 85.0363
L11.4023 85.1601
" />
<path d="M11.4023 85.1601
L11.4023 85.3458
" />
<path d="M11.4023 85.3458
L11.3404 85.4696
" />
<path d="M11.3404 85.4696
L11.2785 85.5316
" />
<path d="M11.2785 85.5316
L11.1547 85.5935
" />
<path d="M11.1547 85.5935
L10.6595 85.5935
" />
<path d="M10.6595 85.5935
L10.6595 84.2935
" />
<path d="M10.6595 84.2935
L11.0928 84.2935
" />
<path d="M11.0928 84.2935
L11.2166 84.3554
" />
<path d="M11.2166 84.3554
L11.2785 84.4173
" />
<path d="M11.2785 84.4173
L11.3404 84.5411
" />
<path d="M11.3404 84.5411
L11.3404 84.6649
" />
<path d="M11.3404 84.6649
L11.2785 84.7887
" />
<path d="M11.2785 84.7887
L11.2166 84.8506
" />
<path d="M11.2166 84.8506
L11.0928 84.9125
" />
<path d="M11.0928 84.9125
L10.6595 84.9125
" />
</g><text x="11.0000" y="135.6500"
textLength="1.4972" font-size="1.7333" lengthAdjust="spacingAndGlyphs"
text-anchor="middle" opacity="0" stroke-opacity="0">C</text>
<g class="stroked-text"><desc>C</desc>
<path d="M11.4023 135.4696
L11.3404 135.5316
" />
<path d="M11.3404 135.5316
L11.1547 135.5935
" />
<path d="M11.1547 135.5935
L11.0309 135.5935
" />
<path d="M11.0309 135.5935
L10.8452 135.5316
" />
<path d="M10.8452 135.5316
L10.7214 135.4077
" />
<path d="M10.7214 135.4077
L10.6595 135.2839
" />
<path d="M10.6595 135.2839
L10.5976 135.0363
" />
<path d="M10.5976 135.0363
L10.5976 134.8506
" />
<path d="M10.5976 134.8506
L10.6595 134.6030
" />
<path d="M10.6595 134.6030
L10.7214 134.4792
" />
<path d="M10.7214 134.4792
L10.8452 134.3554
" />
<path d="M10.8452 134.3554
L11.0309 134.2935
" />
<path d="M11.0309 134.2935
L11.1547 134.2935
" />
<path d="M11.1547 134.2935
L11.3404 134.3554
" />
<path d="M11.3404 134.3554
L11.4023 134.4173
" />
</g><text x="11.0000" y="185.6500"
textLength="1.4972" font-size="1.7333" lengthAdjust="spacingAndGlyphs"
text-anchor="middle" opacity="0" stroke-opacity="0">D</text>
<g class="stroked-text"><desc>D</desc>
<path d="M10.6595 185.5935
L10.6595 184.2935
" />
<path d="M10.6595 184.2935
L10.9690 184.2935
" />
<path d="M10.9690 184.2935
L11.1547 184.3554
" />
<path d="M11.1547 184.3554
L11.2785 184.4792
" />
<path d="M11.2785 184.4792
L11.3404 184.6030
" />
<path d="M11.3404 184.6030
L11.4023 184.8506
" />
<path d="M11.4023 184.8506
L11.4023 185.0363
" />
<path d="M11.4023 185.0363
L11.3404 185.2839
" />
<path d="M11.3404 185.2839
L11.2785 185.4077
" />
<path d="M11.2785 185.4077
L11.1547 185.5316
" />
<path d="M11.1547 185.5316
L10.9690 185.5935
" />
<path d="M10.9690 185.5935
L10.6595 185.5935
" />
</g><text x="11.0000" y="235.6500"
textLength="1.3734" font-size="1.7333" lengthAdjust="spacingAndGlyphs"
text-anchor="middle" opacity="0" stroke-opacity="0">E</text>
<g class="stroked-text"><desc>E</desc>
<path d="M10.7214 234.9125
L11.1547 234.9125
" />
<path d="M11.3404 235.5935
L10.7214 235.5935
" />
<path d="M10.7214 235.5935
L10.7214 234.2935
" />
<path d="M10.7214 234.2935
L11.3404 234.2935
" />
</g><text x="11.0000" y="285.6500"
textLength="1.3115" font-size="1.7333" lengthAdjust="spacingAndGlyphs"
text-anchor="middle" opacity="0" stroke-opacity="0">F</text>
<g class="stroked-text"><desc>F</desc>
<path d="M11.1857 284.9125
L10.7524 284.9125
" />
<path d="M10.7524 285.5935
L10.7524 284.2935
" />
<path d="M10.7524 284.2935
L11.3714 284.2935
" />
</g><path d="M409.9890 60.0000
L407.9890 60.0000
" />
<path d="M409.9890 110.0000
L407.9890 110.0000
" />
<path d="M409.9890 160.0000
L407.9890 160.0000
" />
<path d="M409.9890 210.0000
L407.9890 210.0000
" />
<path d="M409.9890 260.0000
L407.9890 260.0000
" />
<text x="408.9890" y="35.6500"
textLength="1.3115" font-size="1.7333" lengthAdjust="spacingAndGlyphs"
text-anchor="middle" opacity="0" stroke-opacity="0">A</text>
<g class="stroked-text"><desc>A</desc>
<path d="M408.6795 35.2220
L409.2985 35.2220
" />
<path d="M408.5557 35.5935
L408.9890 34.2935
" />
<path d="M408.9890 34.2935
L409.4223 35.5935
" />
</g><text x="408.9890" y="85.6500"
textLength="1.4972" font-size="1.7333" lengthAdjust="spacingAndGlyphs"
text-anchor="middle" opacity="0" stroke-opacity="0">B</text>
<g class="stroked-text"><desc>B</desc>
<path d="M409.0818 84.9125
L409.2675 84.9744
" />
<path d="M409.2675 84.9744
L409.3294 85.0363
" />
<path d="M409.3294 85.0363
L409.3913 85.1601
" />
<path d="M409.3913 85.1601
L409.3913 85.3458
" />
<path d="M409.3913 85.3458
L409.3294 85.4696
" />
<path d="M409.3294 85.4696
L409.2675 85.5316
" />
<path d="M409.2675 85.5316
L409.1437 85.5935
" />
<path d="M409.1437 85.5935
L408.6485 85.5935
" />
<path d="M408.6485 85.5935
L408.6485 84.2935
" />
<path d="M408.6485 84.2935
L409.0818 84.2935
" />
<path d="M409.0818 84.2935
L409.2056 84.3554
" />
<path d="M409.2056 84.3554
L409.2675 84.4173
" />
<path d="M409.2675 84.4173
L409.3294 84.5411
" />
<path d="M409.3294 84.5411
L409.3294 84.6649
" />
<path d="M409.3294 84.6649
L409.2675 84.7887
" />
<path d="M409.2675 84.7887
L409.2056 84.8506
" />
<path d="M409.2056 84.8506
L409.0818 84.9125
" />
<path d="M409.0818 84.9125
L408.6485 84.9125
" />
</g><text x="408.9890" y="135.6500"
textLength="1.4972" font-size="1.7333" lengthAdjust="spacingAndGlyphs"
text-anchor="middle" opacity="0" stroke-opacity="0">C</text>
<g class="stroked-text"><desc>C</desc>
<path d="M409.3913 135.4696
L409.3294 135.5316
" />
<path d="M409.3294 135.5316
L409.1437 135.5935
" />
<path d="M409.1437 135.5935
L409.0199 135.5935
" />
<path d="M409.0199 135.5935
L408.8342 135.5316
" />
<path d="M408.8342 135.5316
L408.7104 135.4077
" />
<path d="M408.7104 135.4077
L408.6485 135.2839
" />
<path d="M408.6485 135.2839
L408.5866 135.0363
" />
<path d="M408.5866 135.0363
L408.5866 134.8506
" />
<path d="M408.5866 134.8506
L408.6485 134.6030
" />
<path d="M408.6485 134.6030
L408.7104 134.4792
" />
<path d="M408.7104 134.4792
L408.8342 134.3554
" />
<path d="M408.8342 134.3554
L409.0199 134.2935
" />
<path d="M409.0199 134.2935
L409.1437 134.2935
" />
<path d="M409.1437 134.2935
L409.3294 134.3554
" />
<path d="M409.3294 134.3554
L409.3913 134.4173
" />
</g><text x="408.9890" y="185.6500"
textLength="1.4972" font-size="1.7333" lengthAdjust="spacingAndGlyphs"
text-anchor="middle" opacity="0" stroke-opacity="0">D</text>
<g class="stroked-text"><desc>D</desc>
<path d="M408.6485 185.5935
L408.6485 184.2935
" />
<path d="M408.6485 184.2935
L408.9580 184.2935
" />
<path d="M408.9580 184.2935
L409.1437 184.3554
" />
<path d="M409.1437 184.3554
L409.2675 184.4792
" />
<path d="M409.2675 184.4792
L409.3294 184.6030
" />
<path d="M409.3294 184.6030
L409.3913 184.8506
" />
<path d="M409.3913 184.8506
L409.3913 185.0363
" />
<path d="M409.3913 185.0363
L409.3294 185.2839
" />
<path d="M409.3294 185.2839
L409.2675 185.4077
" />
<path d="M409.2675 185.4077
L409.1437 185.5316
" />
<path d="M409.1437 185.5316
L408.9580 185.5935
" />
<path d="M408.9580 185.5935
L408.6485 185.5935
" />
</g><text x="408.9890" y="235.6500"
textLength="1.3734" font-size="1.7333" lengthAdjust="spacingAndGlyphs"
text-anchor="middle" opacity="0" stroke-opacity="0">E</text>
<g class="stroked-text"><desc>E</desc>
<path d="M408.7104 234.9125
L409.1437 234.9125
" />
<path d="M409.3294 235.5935
L408.7104 235.5935
" />
<path d="M408.7104 235.5935
L408.7104 234.2935
" />
<path d="M408.7104 234.2935
L409.3294 234.2935
" />
</g><text x="408.9890" y="285.6500"
textLength="1.3115" font-size="1.7333" lengthAdjust="spacingAndGlyphs"
text-anchor="middle" opacity="0" stroke-opacity="0">F</text>
<g class="stroked-text"><desc>F</desc>
<path d="M409.1747 284.9125
L408.7414 284.9125
" />
<path d="M408.7414 285.5935
L408.7414 284.2935
" />
<path d="M408.7414 284.2935
L409.3604 284.2935
" />
</g><text x="322.9890" y="280.8522"
textLength="7.0143" font-size="2.0000" lengthAdjust="spacingAndGlyphs"
text-anchor="start" opacity="0" stroke-opacity="0">Date: </text>
<g class="stroked-text"><desc>Date: </desc>
<path d="M323.4463 280.7881
L323.4463 279.2881
" />
<path d="M323.4463 279.2881
L323.8034 279.2881
" />
<path d="M323.8034 279.2881
L324.0177 279.3595
" />
<path d="M324.0177 279.3595
L324.1606 279.5024
" />
<path d="M324.1606 279.5024
L324.2320 279.6452
" />
<path d="M324.2320 279.6452
L324.3034 279.9309
" />
<path d="M324.3034 279.9309
L324.3034 280.1452
" />
<path d="M324.3034 280.1452
L324.2320 280.4309
" />
<path d="M324.2320 280.4309
L324.1606 280.5738
" />
<path d="M324.1606 280.5738
L324.0177 280.7167
" />
<path d="M324.0177 280.7167
L323.8034 280.7881
" />
<path d="M323.8034 280.7881
L323.4463 280.7881
" />
<path d="M325.5892 280.7881
L325.5892 280.0024
" />
<path d="M325.5892 280.0024
L325.5177 279.8595
" />
<path d="M325.5177 279.8595
L325.3749 279.7881
" />
<path d="M325.3749 279.7881
L325.0892 279.7881
" />
<path d="M325.0892 279.7881
L324.9463 279.8595
" />
<path d="M325.5892 280.7167
L325.4463 280.7881
" />
<path d="M325.4463 280.7881
L325.0892 280.7881
" />
<path d="M325.0892 280.7881
L324.9463 280.7167
" />
<path d="M324.9463 280.7167
L324.8749 280.5738
" />
<path d="M324.8749 280.5738
L324.8749 280.4309
" />
<path d="M324.8749 280.4309
L324.9463 280.2881
" />
<path d="M324.9463 280.2881
L325.0892 280.2167
" />
<path d="M325.0892 280.2167
L325.4463 280.2167
" />
<path d="M325.4463 280.2167
L325.5892 280.1452
" />
<path d="M326.0891 279.7881
L326.6605 279.7881
" />
<path d="M326.3034 279.2881
L326.3034 280.5738
" />
<path d="M326.3034 280.5738
L326.3748 280.7167
" />
<path d="M326.3748 280.7167
L326.5177 280.7881
" />
<path d="M326.5177 280.7881
L326.6605 280.7881
" />
<path d="M327.7319 280.7167
L327.5891 280.7881
" />
<path d="M327.5891 280.7881
L327.3034 280.7881
" />
<path d="M327.3034 280.7881
L327.1605 280.7167
" />
<path d="M327.1605 280.7167
L327.0891 280.5738
" />
<path d="M327.0891 280.5738
L327.0891 280.0024
" />
<path d="M327.0891 280.0024
L327.1605 279.8595
" />
<path d="M327.1605 279.8595
L327.3034 279.7881
" />
<path d="M327.3034 279.7881
L327.5891 279.7881
" />
<path d="M327.5891 279.7881
L327.7319 279.8595
" />
<path d="M327.7319 279.8595
L327.8034 280.0024
" />
<path d="M327.8034 280.0024
L327.8034 280.1452
" />
<path d="M327.8034 280.1452
L327.0891 280.2881
" />
<path d="M328.4462 280.6452
L328.5176 280.7167
" />
<path d="M328.5176 280.7167
L328.4462 280.7881
" />
<path d="M328.4462 280.7881
L328.3748 280.7167
" />
<path d="M328.3748 280.7167
L328.4462 280.6452
" />
<path d="M328.4462 280.6452
L328.4462 280.7881
" />
<path d="M328.4462 279.8595
L328.5176 279.9309
" />
<path d="M328.5176 279.9309
L328.4462 280.0024
" />
<path d="M328.4462 280.0024
L328.3748 279.9309
" />
<path d="M328.3748 279.9309
L328.4462 279.8595
" />
<path d="M328.4462 279.8595
L328.4462 280.0024
" />
</g><path d="M299.9890 281.5022
L407.9890 281.5022
" />
<text x="300.9890" y="283.6522"
textLength="20.8716" font-size="2.0000" lengthAdjust="spacingAndGlyphs"
text-anchor="start" opacity="0" stroke-opacity="0">KiCad E.D.A. 9.0.0</text>
<g class="stroked-text"><desc>KiCad E.D.A. 9.0.0</desc>
<path d="M301.4463 283.5881
L301.4463 282.0881
" />
<path d="M302.3034 283.5881
L301.6606 282.7309
" />
<path d="M302.3034 282.0881
L301.4463 282.9452
" />
<path d="M302.9463 283.5881
L302.9463 282.5881
" />
<path d="M302.9463 282.0881
L302.8749 282.1595
" />
<path d="M302.8749 282.1595
L302.9463 282.2309
" />
<path d="M302.9463 282.2309
L303.0177 282.1595
" />
<path d="M303.0177 282.1595
L302.9463 282.0881
" />
<path d="M302.9463 282.0881
L302.9463 282.2309
" />
<path d="M304.5177 283.4452
L304.4463 283.5167
" />
<path d="M304.4463 283.5167
L304.2320 283.5881
" />
<path d="M304.2320 283.5881
L304.0892 283.5881
" />
<path d="M304.0892 283.5881
L303.8749 283.5167
" />
<path d="M303.8749 283.5167
L303.7320 283.3738
" />
<path d="M303.7320 283.3738
L303.6606 283.2309
" />
<path d="M303.6606 283.2309
L303.5892 282.9452
" />
<path d="M303.5892 282.9452
L303.5892 282.7309
" />
<path d="M303.5892 282.7309
L303.6606 282.4452
" />
<path d="M303.6606 282.4452
L303.7320 282.3024
" />
<path d="M303.7320 282.3024
L303.8749 282.1595
" />
<path d="M303.8749 282.1595
L304.0892 282.0881
" />
<path d="M304.0892 282.0881
L304.2320 282.0881
" />
<path d="M304.2320 282.0881
L304.4463 282.1595
" />
<path d="M304.4463 282.1595
L304.5177 282.2309
" />
<path d="M305.8035 283.5881
L305.8035 282.8024
" />
<path d="M305.8035 282.8024
L305.7320 282.6595
" />
<path d="M305.7320 282.6595
L305.5892 282.5881
" />
<path d="M305.5892 282.5881
L305.3035 282.5881
" />
<path d="M305.3035 282.5881
L305.1606 282.6595
" />
<path d="M305.8035 283.5167
L305.6606 283.5881
" />
<path d="M305.6606 283.5881
L305.3035 283.5881
" />
<path d="M305.3035 283.5881
L305.1606 283.5167
" />
<path d="M305.1606 283.5167
L305.0892 283.3738
" />
<path d="M305.0892 283.3738
L305.0892 283.2309
" />
<path d="M305.0892 283.2309
L305.1606 283.0881
" />
<path d="M305.1606 283.0881
L305.3035 283.0167
" />
<path d="M305.3035 283.0167
L305.6606 283.0167
" />
<path d="M305.6606 283.0167
L305.8035 282.9452
" />
<path d="M307.1606 283.5881
L307.1606 282.0881
" />
<path d="M307.1606 283.5167
L307.0177 283.5881
" />
<path d="M307.0177 283.5881
L306.7320 283.5881
" />
<path d="M306.7320 283.5881
L306.5891 283.5167
" />
<path d="M306.5891 283.5167
L306.5177 283.4452
" />
<path d="M306.5177 283.4452
L306.4463 283.3024
" />
<path d="M306.4463 283.3024
L306.4463 282.8738
" />
<path d="M306.4463 282.8738
L306.5177 282.7309
" />
<path d="M306.5177 282.7309
L306.5891 282.6595
" />
<path d="M306.5891 282.6595
L306.7320 282.5881
" />
<path d="M306.7320 282.5881
L307.0177 282.5881
" />
<path d="M307.0177 282.5881
L307.1606 282.6595
" />
<path d="M309.0177 282.8024
L309.5177 282.8024
" />
<path d="M309.7320 283.5881
L309.0177 283.5881
" />
<path d="M309.0177 283.5881
L309.0177 282.0881
" />
<path d="M309.0177 282.0881
L309.7320 282.0881
" />
<path d="M310.3748 283.4452
L310.4462 283.5167
" />
<path d="M310.4462 283.5167
L310.3748 283.5881
" />
<path d="M310.3748 283.5881
L310.3034 283.5167
" />
<path d="M310.3034 283.5167
L310.3748 283.4452
" />
<path d="M310.3748 283.4452
L310.3748 283.5881
" />
<path d="M311.0891 283.5881
L311.0891 282.0881
" />
<path d="M311.0891 282.0881
L311.4462 282.0881
" />
<path d="M311.4462 282.0881
L311.6605 282.1595
" />
<path d="M311.6605 282.1595
L311.8034 282.3024
" />
<path d="M311.8034 282.3024
L311.8748 282.4452
" />
<path d="M311.8748 282.4452
L311.9462 282.7309
" />
<path d="M311.9462 282.7309
L311.9462 282.9452
" />
<path d="M311.9462 282.9452
L311.8748 283.2309
" />
<path d="M311.8748 283.2309
L311.8034 283.3738
" />
<path d="M311.8034 283.3738
L311.6605 283.5167
" />
<path d="M311.6605 283.5167
L311.4462 283.5881
" />
<path d="M311.4462 283.5881
L311.0891 283.5881
" />
<path d="M312.5891 283.4452
L312.6605 283.5167
" />
<path d="M312.6605 283.5167
L312.5891 283.5881
" />
<path d="M312.5891 283.5881
L312.5177 283.5167
" />
<path d="M312.5177 283.5167
L312.5891 283.4452
" />
<path d="M312.5891 283.4452
L312.5891 283.5881
" />
<path d="M313.2320 283.1595
L313.9463 283.1595
" />
<path d="M313.0891 283.5881
L313.5891 282.0881
" />
<path d="M313.5891 282.0881
L314.0891 283.5881
" />
<path d="M314.5891 283.4452
L314.6605 283.5167
" />
<path d="M314.6605 283.5167
L314.5891 283.5881
" />
<path d="M314.5891 283.5881
L314.5177 283.5167
" />
<path d="M314.5177 283.5167
L314.5891 283.4452
" />
<path d="M314.5891 283.4452
L314.5891 283.5881
" />
<path d="M316.5177 283.5881
L316.8034 283.5881
" />
<path d="M316.8034 283.5881
L316.9463 283.5167
" />
<path d="M316.9463 283.5167
L317.0177 283.4452
" />
<path d="M317.0177 283.4452
L317.1606 283.2309
" />
<path d="M317.1606 283.2309
L317.2320 282.9452
" />
<path d="M317.2320 282.9452
L317.2320 282.3738
" />
<path d="M317.2320 282.3738
L317.1606 282.2309
" />
<path d="M317.1606 282.2309
L317.0892 282.1595
" />
<path d="M317.0892 282.1595
L316.9463 282.0881
" />
<path d="M316.9463 282.0881
L316.6606 282.0881
" />
<path d="M316.6606 282.0881
L316.5177 282.1595
" />
<path d="M316.5177 282.1595
L316.4463 282.2309
" />
<path d="M316.4463 282.2309
L316.3749 282.3738
" />
<path d="M316.3749 282.3738
L316.3749 282.7309
" />
<path d="M316.3749 282.7309
L316.4463 282.8738
" />
<path d="M316.4463 282.8738
L316.5177 282.9452
" />
<path d="M316.5177 282.9452
L316.6606 283.0167
" />
<path d="M316.6606 283.0167
L316.9463 283.0167
" />
<path d="M316.9463 283.0167
L317.0892 282.9452
" />
<path d="M317.0892 282.9452
L317.1606 282.8738
" />
<path d="M317.1606 282.8738
L317.2320 282.7309
" />
<path d="M317.8749 283.4452
L317.9463 283.5167
" />
<path d="M317.9463 283.5167
L317.8749 283.5881
" />
<path d="M317.8749 283.5881
L317.8035 283.5167
" />
<path d="M317.8035 283.5167
L317.8749 283.4452
" />
<path d="M317.8749 283.4452
L317.8749 283.5881
" />
<path d="M318.8749 282.0881
L319.0178 282.0881
" />
<path d="M319.0178 282.0881
L319.1606 282.1595
" />
<path d="M319.1606 282.1595
L319.2321 282.2309
" />
<path d="M319.2321 282.2309
L319.3035 282.3738
" />
<path d="M319.3035 282.3738
L319.3749 282.6595
" />
<path d="M319.3749 282.6595
L319.3749 283.0167
" />
<path d="M319.3749 283.0167
L319.3035 283.3024
" />
<path d="M319.3035 283.3024
L319.2321 283.4452
" />
<path d="M319.2321 283.4452
L319.1606 283.5167
" />
<path d="M319.1606 283.5167
L319.0178 283.5881
" />
<path d="M319.0178 283.5881
L318.8749 283.5881
" />
<path d="M318.8749 283.5881
L318.7321 283.5167
" />
<path d="M318.7321 283.5167
L318.6606 283.4452
" />
<path d="M318.6606 283.4452
L318.5892 283.3024
" />
<path d="M318.5892 283.3024
L318.5178 283.0167
" />
<path d="M318.5178 283.0167
L318.5178 282.6595
" />
<path d="M318.5178 282.6595
L318.5892 282.3738
" />
<path d="M318.5892 282.3738
L318.6606 282.2309
" />
<path d="M318.6606 282.2309
L318.7321 282.1595
" />
<path d="M318.7321 282.1595
L318.8749 282.0881
" />
<path d="M320.0178 283.4452
L320.0892 283.5167
" />
<path d="M320.0892 283.5167
L320.0178 283.5881
" />
<path d="M320.0178 283.5881
L319.9464 283.5167
" />
<path d="M319.9464 283.5167
L320.0178 283.4452
" />
<path d="M320.0178 283.4452
L320.0178 283.5881
" />
<path d="M321.0178 282.0881
L321.1607 282.0881
" />
<path d="M321.1607 282.0881
L321.3035 282.1595
" />
<path d="M321.3035 282.1595
L321.3750 282.2309
" />
<path d="M321.3750 282.2309
L321.4464 282.3738
" />
<path d="M321.4464 282.3738
L321.5178 282.6595
" />
<path d="M321.5178 282.6595
L321.5178 283.0167
" />
<path d="M321.5178 283.0167
L321.4464 283.3024
" />
<path d="M321.4464 283.3024
L321.3750 283.4452
" />
<path d="M321.3750 283.4452
L321.3035 283.5167
" />
<path d="M321.3035 283.5167
L321.1607 283.5881
" />
<path d="M321.1607 283.5881
L321.0178 283.5881
" />
<path d="M321.0178 283.5881
L320.8750 283.5167
" />
<path d="M320.8750 283.5167
L320.8035 283.4452
" />
<path d="M320.8035 283.4452
L320.7321 283.3024
" />
<path d="M320.7321 283.3024
L320.6607 283.0167
" />
<path d="M320.6607 283.0167
L320.6607 282.6595
" />
<path d="M320.6607 282.6595
L320.7321 282.3738
" />
<path d="M320.7321 282.3738
L320.8035 282.2309
" />
<path d="M320.8035 282.2309
L320.8750 282.1595
" />
<path d="M320.8750 282.1595
L321.0178 282.0881
" />
</g><path d="M299.9890 278.5022
L407.9890 278.5022
" />
</g>
<g style="fill:none; 
stroke:#840000; stroke-width:0.3000; stroke-opacity:1; 
stroke-linecap:round; stroke-linejoin:round;">
<text x="385.9890" y="280.8522"
textLength="6.3858" font-size="2.0000" lengthAdjust="spacingAndGlyphs"
text-anchor="start" opacity="0" stroke-opacity="0">Rev: </text>
<g class="stroked-text"><desc>Rev: </desc>
<path d="M387.4005 280.7805
L386.9005 280.0662
" />
<path d="M386.5434 280.7805
L386.5434 279.2805
" />
<path d="M386.5434 279.2805
L387.1148 279.2805
" />
<path d="M387.1148 279.2805
L387.2577 279.3519
" />
<path d="M387.2577 279.3519
L387.3291 279.4233
" />
<path d="M387.3291 279.4233
L387.4005 279.5662
" />
<path d="M387.4005 279.5662
L387.4005 279.7805
" />
<path d="M387.4005 279.7805
L387.3291 279.9233
" />
<path d="M387.3291 279.9233
L387.2577 279.9948
" />
<path d="M387.2577 279.9948
L387.1148 280.0662
" />
<path d="M387.1148 280.0662
L386.5434 280.0662
" />
<path d="M388.6148 280.7091
L388.4720 280.7805
" />
<path d="M388.4720 280.7805
L388.1863 280.7805
" />
<path d="M388.1863 280.7805
L388.0434 280.7091
" />
<path d="M388.0434 280.7091
L387.9720 280.5662
" />
<path d="M387.9720 280.5662
L387.9720 279.9948
" />
<path d="M387.9720 279.9948
L388.0434 279.8519
" />
<path d="M388.0434 279.8519
L388.1863 279.7805
" />
<path d="M388.1863 279.7805
L388.4720 279.7805
" />
<path d="M388.4720 279.7805
L388.6148 279.8519
" />
<path d="M388.6148 279.8519
L388.6863 279.9948
" />
<path d="M388.6863 279.9948
L388.6863 280.1376
" />
<path d="M388.6863 280.1376
L387.9720 280.2805
" />
<path d="M389.1862 279.7805
L389.5434 280.7805
" />
<path d="M389.5434 280.7805
L389.9005 279.7805
" />
<path d="M390.4720 280.6376
L390.5434 280.7091
" />
<path d="M390.5434 280.7091
L390.4720 280.7805
" />
<path d="M390.4720 280.7805
L390.4006 280.7091
" />
<path d="M390.4006 280.7091
L390.4720 280.6376
" />
<path d="M390.4720 280.6376
L390.4720 280.7805
" />
<path d="M390.4720 279.8519
L390.5434 279.9233
" />
<path d="M390.5434 279.9233
L390.4720 279.9948
" />
<path d="M390.4720 279.9948
L390.4006 279.9233
" />
<path d="M390.4006 279.9233
L390.4720 279.8519
" />
<path d="M390.4720 279.8519
L390.4720 279.9948
" />
</g></g>
<g style="fill:none; 
stroke:#840000; stroke-width:0.1524; stroke-opacity:1; 
stroke-linecap:round; stroke-linejoin:round;">
<text x="300.9890" y="280.8522"
textLength="9.3716" font-size="2.0000" lengthAdjust="spacingAndGlyphs"
text-anchor="start" opacity="0" stroke-opacity="0">Size: A3</text>
<g class="stroked-text"><desc>Size: A3</desc>
<path d="M301.3749 280.7167
L301.5892 280.7881
" />
<path d="M301.5892 280.7881
L301.9463 280.7881
" />
<path d="M301.9463 280.7881
L302.0892 280.7167
" />
<path d="M302.0892 280.7167
L302.1606 280.6452
" />
<path d="M302.1606 280.6452
L302.2320 280.5024
" />
<path d="M302.2320 280.5024
L302.2320 280.3595
" />
<path d="M302.2320 280.3595
L302.1606 280.2167
" />
<path d="M302.1606 280.2167
L302.0892 280.1452
" />
<path d="M302.0892 280.1452
L301.9463 280.0738
" />
<path d="M301.9463 280.0738
L301.6606 280.0024
" />
<path d="M301.6606 280.0024
L301.5177 279.9309
" />
<path d="M301.5177 279.9309
L301.4463 279.8595
" />
<path d="M301.4463 279.8595
L301.3749 279.7167
" />
<path d="M301.3749 279.7167
L301.3749 279.5738
" />
<path d="M301.3749 279.5738
L301.4463 279.4309
" />
<path d="M301.4463 279.4309
L301.5177 279.3595
" />
<path d="M301.5177 279.3595
L301.6606 279.2881
" />
<path d="M301.6606 279.2881
L302.0177 279.2881
" />
<path d="M302.0177 279.2881
L302.2320 279.3595
" />
<path d="M302.8749 280.7881
L302.8749 279.7881
" />
<path d="M302.8749 279.2881
L302.8035 279.3595
" />
<path d="M302.8035 279.3595
L302.8749 279.4309
" />
<path d="M302.8749 279.4309
L302.9463 279.3595
" />
<path d="M302.9463 279.3595
L302.8749 279.2881
" />
<path d="M302.8749 279.2881
L302.8749 279.4309
" />
<path d="M303.4463 279.7881
L304.2321 279.7881
" />
<path d="M304.2321 279.7881
L303.4463 280.7881
" />
<path d="M303.4463 280.7881
L304.2321 280.7881
" />
<path d="M305.3749 280.7167
L305.2321 280.7881
" />
<path d="M305.2321 280.7881
L304.9464 280.7881
" />
<path d="M304.9464 280.7881
L304.8035 280.7167
" />
<path d="M304.8035 280.7167
L304.7321 280.5738
" />
<path d="M304.7321 280.5738
L304.7321 280.0024
" />
<path d="M304.7321 280.0024
L304.8035 279.8595
" />
<path d="M304.8035 279.8595
L304.9464 279.7881
" />
<path d="M304.9464 279.7881
L305.2321 279.7881
" />
<path d="M305.2321 279.7881
L305.3749 279.8595
" />
<path d="M305.3749 279.8595
L305.4464 280.0024
" />
<path d="M305.4464 280.0024
L305.4464 280.1452
" />
<path d="M305.4464 280.1452
L304.7321 280.2881
" />
<path d="M306.0892 280.6452
L306.1606 280.7167
" />
<path d="M306.1606 280.7167
L306.0892 280.7881
" />
<path d="M306.0892 280.7881
L306.0178 280.7167
" />
<path d="M306.0178 280.7167
L306.0892 280.6452
" />
<path d="M306.0892 280.6452
L306.0892 280.7881
" />
<path d="M306.0892 279.8595
L306.1606 279.9309
" />
<path d="M306.1606 279.9309
L306.0892 280.0024
" />
<path d="M306.0892 280.0024
L306.0178 279.9309
" />
<path d="M306.0178 279.9309
L306.0892 279.8595
" />
<path d="M306.0892 279.8595
L306.0892 280.0024
" />
<path d="M307.8750 280.3595
L308.5893 280.3595
" />
<path d="M307.7321 280.7881
L308.2321 279.2881
" />
<path d="M308.2321 279.2881
L308.7321 280.7881
" />
<path d="M309.0892 279.2881
L310.0178 279.2881
" />
<path d="M310.0178 279.2881
L309.5178 279.8595
" />
<path d="M309.5178 279.8595
L309.7321 279.8595
" />
<path d="M309.7321 279.8595
L309.8750 279.9309
" />
<path d="M309.8750 279.9309
L309.9464 280.0024
" />
<path d="M309.9464 280.0024
L310.0178 280.1452
" />
<path d="M310.0178 280.1452
L310.0178 280.5024
" />
<path d="M310.0178 280.5024
L309.9464 280.6452
" />
<path d="M309.9464 280.6452
L309.8750 280.7167
" />
<path d="M309.8750 280.7167
L309.7321 280.7881
" />
<path d="M309.7321 280.7881
L309.3035 280.7881
" />
<path d="M309.3035 280.7881
L309.1607 280.7167
" />
<path d="M309.1607 280.7167
L309.0892 280.6452
" />
</g><text x="385.9890" y="283.6522"
textLength="8.5144" font-size="2.0000" lengthAdjust="spacingAndGlyphs"
text-anchor="start" opacity="0" stroke-opacity="0">Id: 1/1</text>
<g class="stroked-text"><desc>Id: 1/1</desc>
<path d="M386.4463 283.5881
L386.4463 282.0881
" />
<path d="M387.8035 283.5881
L387.8035 282.0881
" />
<path d="M387.8035 283.5167
L387.6606 283.5881
" />
<path d="M387.6606 283.5881
L387.3749 283.5881
" />
<path d="M387.3749 283.5881
L387.2320 283.5167
" />
<path d="M387.2320 283.5167
L387.1606 283.4452
" />
<path d="M387.1606 283.4452
L387.0892 283.3024
" />
<path d="M387.0892 283.3024
L387.0892 282.8738
" />
<path d="M387.0892 282.8738
L387.1606 282.7309
" />
<path d="M387.1606 282.7309
L387.2320 282.6595
" />
<path d="M387.2320 282.6595
L387.3749 282.5881
" />
<path d="M387.3749 282.5881
L387.6606 282.5881
" />
<path d="M387.6606 282.5881
L387.8035 282.6595
" />
<path d="M388.5177 283.4452
L388.5891 283.5167
" />
<path d="M388.5891 283.5167
L388.5177 283.5881
" />
<path d="M388.5177 283.5881
L388.4463 283.5167
" />
<path d="M388.4463 283.5167
L388.5177 283.4452
" />
<path d="M388.5177 283.4452
L388.5177 283.5881
" />
<path d="M388.5177 282.6595
L388.5891 282.7309
" />
<path d="M388.5891 282.7309
L388.5177 282.8024
" />
<path d="M388.5177 282.8024
L388.4463 282.7309
" />
<path d="M388.4463 282.7309
L388.5177 282.6595
" />
<path d="M388.5177 282.6595
L388.5177 282.8024
" />
<path d="M391.1606 283.5881
L390.3035 283.5881
" />
<path d="M390.7320 283.5881
L390.7320 282.0881
" />
<path d="M390.7320 282.0881
L390.5892 282.3024
" />
<path d="M390.5892 282.3024
L390.4463 282.4452
" />
<path d="M390.4463 282.4452
L390.3035 282.5167
" />
<path d="M392.8749 282.0167
L391.5892 283.9452
" />
<path d="M394.1606 283.5881
L393.3035 283.5881
" />
<path d="M393.7320 283.5881
L393.7320 282.0881
" />
<path d="M393.7320 282.0881
L393.5892 282.3024
" />
<path d="M393.5892 282.3024
L393.4463 282.4452
" />
<path d="M393.4463 282.4452
L393.3035 282.5167
" />
</g><path d="M299.9890 274.5022
L407.9890 274.5022
" />
</g>
<g style="fill:none; 
stroke:#840000; stroke-width:0.4000; stroke-opacity:1; 
stroke-linecap:round; stroke-linejoin:round;">
<text x="300.9890" y="277.3022"
textLength="9.6572" font-size="2.6666" lengthAdjust="spacingAndGlyphs"
text-anchor="start" opacity="0" stroke-opacity="0">Title: </text>
<g class="stroked-text"><desc>Title: </desc>
<path d="M301.6806 275.2066
L302.8235 275.2066
" />
<path d="M302.0021 277.2066
L302.2521 275.2066
" />
<path d="M303.2401 277.2066
L303.4068 275.8733
" />
<path d="M303.4901 275.2066
L303.3830 275.3018
" />
<path d="M303.3830 275.3018
L303.4663 275.3971
" />
<path d="M303.4663 275.3971
L303.5735 275.3018
" />
<path d="M303.5735 275.3018
L303.4901 275.2066
" />
<path d="M303.4901 275.2066
L303.4663 275.3971
" />
<path d="M304.0735 275.8733
L304.8354 275.8733
" />
<path d="M304.4425 275.2066
L304.2283 276.9209
" />
<path d="M304.2283 276.9209
L304.2997 277.1114
" />
<path d="M304.2997 277.1114
L304.4783 277.2066
" />
<path d="M304.4783 277.2066
L304.6687 277.2066
" />
<path d="M305.6212 277.2066
L305.4426 277.1114
" />
<path d="M305.4426 277.1114
L305.3712 276.9209
" />
<path d="M305.3712 276.9209
L305.5854 275.2066
" />
<path d="M307.1568 277.1114
L306.9545 277.2066
" />
<path d="M306.9545 277.2066
L306.5735 277.2066
" />
<path d="M306.5735 277.2066
L306.3949 277.1114
" />
<path d="M306.3949 277.1114
L306.3235 276.9209
" />
<path d="M306.3235 276.9209
L306.4188 276.1590
" />
<path d="M306.4188 276.1590
L306.5378 275.9685
" />
<path d="M306.5378 275.9685
L306.7402 275.8733
" />
<path d="M306.7402 275.8733
L307.1211 275.8733
" />
<path d="M307.1211 275.8733
L307.2997 275.9685
" />
<path d="M307.2997 275.9685
L307.3711 276.1590
" />
<path d="M307.3711 276.1590
L307.3473 276.3494
" />
<path d="M307.3473 276.3494
L306.3711 276.5399
" />
<path d="M308.1211 277.0161
L308.2045 277.1114
" />
<path d="M308.2045 277.1114
L308.0973 277.2066
" />
<path d="M308.0973 277.2066
L308.0140 277.1114
" />
<path d="M308.0140 277.1114
L308.1211 277.0161
" />
<path d="M308.1211 277.0161
L308.0973 277.2066
" />
<path d="M308.2521 275.9685
L308.3354 276.0637
" />
<path d="M308.3354 276.0637
L308.2283 276.1590
" />
<path d="M308.2283 276.1590
L308.1450 276.0637
" />
<path d="M308.1450 276.0637
L308.2521 275.9685
" />
<path d="M308.2521 275.9685
L308.2283 276.1590
" />
</g></g>
<g style="fill:none; 
stroke:#840000; stroke-width:0.1524; stroke-opacity:1; 
stroke-linecap:round; stroke-linejoin:round;">
<text x="300.9890" y="273.4522"
textLength="22.4428" font-size="2.0000" lengthAdjust="spacingAndGlyphs"
text-anchor="start" opacity="0" stroke-opacity="0">File: amp.kicad_sch</text>
<g class="stroked-text"><desc>File: amp.kicad_sch</desc>
<path d="M301.9463 272.6024
L301.4463 272.6024
" />
<path d="M301.4463 273.3881
L301.4463 271.8881
" />
<path d="M301.4463 271.8881
L302.1606 271.8881
" />
<path d="M302.7320 273.3881
L302.7320 272.3881
" />
<path d="M302.7320 271.8881
L302.6606 271.9595
" />
<path d="M302.6606 271.9595
L302.7320 272.0309
" />
<path d="M302.7320 272.0309
L302.8034 271.9595
" />
<path d="M302.8034 271.9595
L302.7320 271.8881
" />
<path d="M302.7320 271.8881
L302.7320 272.0309
" />
<path d="M303.6606 273.3881
L303.5177 273.3167
" />
<path d="M303.5177 273.3167
L303.4463 273.1738
" />
<path d="M303.4463 273.1738
L303.4463 271.8881
" />
<path d="M304.8034 273.3167
L304.6606 273.3881
" />
<path d="M304.6606 273.3881
L304.3749 273.3881
" />
<path d="M304.3749 273.3881
L304.2320 273.3167
" />
<path d="M304.2320 273.3167
L304.1606 273.1738
" />
<path d="M304.1606 273.1738
L304.1606 272.6024
" />
<path d="M304.1606 272.6024
L304.2320 272.4595
" />
<path d="M304.2320 272.4595
L304.3749 272.3881
" />
<path d="M304.3749 272.3881
L304.6606 272.3881
" />
<path d="M304.6606 272.3881
L304.8034 272.4595
" />
<path d="M304.8034 272.4595
L304.8749 272.6024
" />
<path d="M304.8749 272.6024
L304.8749 272.7452
" />
<path d="M304.8749 272.7452
L304.1606 272.8881
" />
<path d="M305.5177 273.2452
L305.5891 273.3167
" />
<path d="M305.5891 273.3167
L305.5177 273.3881
" />
<path d="M305.5177 273.3881
L305.4463 273.3167
" />
<path d="M305.4463 273.3167
L305.5177 273.2452
" />
<path d="M305.5177 273.2452
L305.5177 273.3881
" />
<path d="M305.5177 272.4595
L305.5891 272.5309
" />
<path d="M305.5891 272.5309
L305.5177 272.6024
" />
<path d="M305.5177 272.6024
L305.4463 272.5309
" />
<path d="M305.4463 272.5309
L305.5177 272.4595
" />
<path d="M305.5177 272.4595
L305.5177 272.6024
" />
<path d="M308.0178 273.3881
L308.0178 272.6024
" />
<path d="M308.0178 272.6024
L307.9463 272.4595
" />
<path d="M307.9463 272.4595
L307.8035 272.3881
" />
<path d="M307.8035 272.3881
L307.5178 272.3881
" />
<path d="M307.5178 272.3881
L307.3749 272.4595
" />
<path d="M308.0178 273.3167
L307.8749 273.3881
" />
<path d="M307.8749 273.3881
L307.5178 273.3881
" />
<path d="M307.5178 273.3881
L307.3749 273.3167
" />
<path d="M307.3749 273.3167
L307.3035 273.1738
" />
<path d="M307.3035 273.1738
L307.3035 273.0309
" />
<path d="M307.3035 273.0309
L307.3749 272.8881
" />
<path d="M307.3749 272.8881
L307.5178 272.8167
" />
<path d="M307.5178 272.8167
L307.8749 272.8167
" />
<path d="M307.8749 272.8167
L308.0178 272.7452
" />
<path d="M308.7320 273.3881
L308.7320 272.3881
" />
<path d="M308.7320 272.5309
L308.8034 272.4595
" />
<path d="M308.8034 272.4595
L308.9463 272.3881
" />
<path d="M308.9463 272.3881
L309.1606 272.3881
" />
<path d="M309.1606 272.3881
L309.3034 272.4595
" />
<path d="M309.3034 272.4595
L309.3749 272.6024
" />
<path d="M309.3749 272.6024
L309.3749 273.3881
" />
<path d="M309.3749 272.6024
L309.4463 272.4595
" />
<path d="M309.4463 272.4595
L309.5891 272.3881
" />
<path d="M309.5891 272.3881
L309.8034 272.3881
" />
<path d="M309.8034 272.3881
L309.9463 272.4595
" />
<path d="M309.9463 272.4595
L310.0177 272.6024
" />
<path d="M310.0177 272.6024
L310.0177 273.3881
" />
<path d="M310.7320 272.3881
L310.7320 273.8881
" />
<path d="M310.7320 272.4595
L310.8749 272.3881
" />
<path d="M310.8749 272.3881
L311.1606 272.3881
" />
<path d="M311.1606 272.3881
L311.3034 272.4595
" />
<path d="M311.3034 272.4595
L311.3749 272.5309
" />
<path d="M311.3749 272.5309
L311.4463 272.6738
" />
<path d="M311.4463 272.6738
L311.4463 273.1024
" />
<path d="M311.4463 273.1024
L311.3749 273.2452
" />
<path d="M311.3749 273.2452
L311.3034 273.3167
" />
<path d="M311.3034 273.3167
L311.1606 273.3881
" />
<path d="M311.1606 273.3881
L310.8749 273.3881
" />
<path d="M310.8749 273.3881
L310.7320 273.3167
" />
<path d="M312.0891 273.2452
L312.1605 273.3167
" />
<path d="M312.1605 273.3167
L312.0891 273.3881
" />
<path d="M312.0891 273.3881
L312.0177 273.3167
" />
<path d="M312.0177 273.3167
L312.0891 273.2452
" />
<path d="M312.0891 273.2452
L312.0891 273.3881
" />
<path d="M312.8034 273.3881
L312.8034 271.8881
" />
<path d="M312.9463 272.8167
L313.3748 273.3881
" />
<path d="M313.3748 272.3881
L312.8034 272.9595
" />
<path d="M314.0177 273.3881
L314.0177 272.3881
" />
<path d="M314.0177 271.8881
L313.9463 271.9595
" />
<path d="M313.9463 271.9595
L314.0177 272.0309
" />
<path d="M314.0177 272.0309
L314.0891 271.9595
" />
<path d="M314.0891 271.9595
L314.0177 271.8881
" />
<path d="M314.0177 271.8881
L314.0177 272.0309
" />
<path d="M315.3749 273.3167
L315.2320 273.3881
" />
<path d="M315.2320 273.3881
L314.9463 273.3881
" />
<path d="M314.9463 273.3881
L314.8034 273.3167
" />
<path d="M314.8034 273.3167
L314.7320 273.2452
" />
<path d="M314.7320 273.2452
L314.6606 273.1024
" />
<path d="M314.6606 273.1024
L314.6606 272.6738
" />
<path d="M314.6606 272.6738
L314.7320 272.5309
" />
<path d="M314.7320 272.5309
L314.8034 272.4595
" />
<path d="M314.8034 272.4595
L314.9463 272.3881
" />
<path d="M314.9463 272.3881
L315.2320 272.3881
" />
<path d="M315.2320 272.3881
L315.3749 272.4595
" />
<path d="M316.6606 273.3881
L316.6606 272.6024
" />
<path d="M316.6606 272.6024
L316.5891 272.4595
" />
<path d="M316.5891 272.4595
L316.4463 272.3881
" />
<path d="M316.4463 272.3881
L316.1606 272.3881
" />
<path d="M316.1606 272.3881
L316.0177 272.4595
" />
<path d="M316.6606 273.3167
L316.5177 273.3881
" />
<path d="M316.5177 273.3881
L316.1606 273.3881
" />
<path d="M316.1606 273.3881
L316.0177 273.3167
" />
<path d="M316.0177 273.3167
L315.9463 273.1738
" />
<path d="M315.9463 273.1738
L315.9463 273.0309
" />
<path d="M315.9463 273.0309
L316.0177 272.8881
" />
<path d="M316.0177 272.8881
L316.1606 272.8167
" />
<path d="M316.1606 272.8167
L316.5177 272.8167
" />
<path d="M316.5177 272.8167
L316.6606 272.7452
" />
<path d="M318.0177 273.3881
L318.0177 271.8881
" />
<path d="M318.0177 273.3167
L317.8748 273.3881
" />
<path d="M317.8748 273.3881
L317.5891 273.3881
" />
<path d="M317.5891 273.3881
L317.4462 273.3167
" />
<path d="M317.4462 273.3167
L317.3748 273.2452
" />
<path d="M317.3748 273.2452
L317.3034 273.1024
" />
<path d="M317.3034 273.1024
L317.3034 272.6738
" />
<path d="M317.3034 272.6738
L317.3748 272.5309
" />
<path d="M317.3748 272.5309
L317.4462 272.4595
" />
<path d="M317.4462 272.4595
L317.5891 272.3881
" />
<path d="M317.5891 272.3881
L317.8748 272.3881
" />
<path d="M317.8748 272.3881
L318.0177 272.4595
" />
<path d="M318.3748 273.5309
L319.5176 273.5309
" />
<path d="M319.8034 273.3167
L319.9462 273.3881
" />
<path d="M319.9462 273.3881
L320.2319 273.3881
" />
<path d="M320.2319 273.3881
L320.3748 273.3167
" />
<path d="M320.3748 273.3167
L320.4462 273.1738
" />
<path d="M320.4462 273.1738
L320.4462 273.1024
" />
<path d="M320.4462 273.1024
L320.3748 272.9595
" />
<path d="M320.3748 272.9595
L320.2319 272.8881
" />
<path d="M320.2319 272.8881
L320.0177 272.8881
" />
<path d="M320.0177 272.8881
L319.8748 272.8167
" />
<path d="M319.8748 272.8167
L319.8034 272.6738
" />
<path d="M319.8034 272.6738
L319.8034 272.6024
" />
<path d="M319.8034 272.6024
L319.8748 272.4595
" />
<path d="M319.8748 272.4595
L320.0177 272.3881
" />
<path d="M320.0177 272.3881
L320.2319 272.3881
" />
<path d="M320.2319 272.3881
L320.3748 272.4595
" />
<path d="M321.7320 273.3167
L321.5891 273.3881
" />
<path d="M321.5891 273.3881
L321.3034 273.3881
" />
<path d="M321.3034 273.3881
L321.1605 273.3167
" />
<path d="M321.1605 273.3167
L321.0891 273.2452
" />
<path d="M321.0891 273.2452
L321.0177 273.1024
" />
<path d="M321.0177 273.1024
L321.0177 272.6738
" />
<path d="M321.0177 272.6738
L321.0891 272.5309
" />
<path d="M321.0891 272.5309
L321.1605 272.4595
" />
<path d="M321.1605 272.4595
L321.3034 272.3881
" />
<path d="M321.3034 272.3881
L321.5891 272.3881
" />
<path d="M321.5891 272.3881
L321.7320 272.4595
" />
<path d="M322.3748 273.3881
L322.3748 271.8881
" />
<path d="M323.0177 273.3881
L323.0177 272.6024
" />
<path d="M323.0177 272.6024
L322.9462 272.4595
" />
<path d="M322.9462 272.4595
L322.8034 272.3881
" />
<path d="M322.8034 272.3881
L322.5891 272.3881
" />
<path d="M322.5891 272.3881
L322.4462 272.4595
" />
<path d="M322.4462 272.4595
L322.3748 272.5309
" />
</g><path d="M299.9890 268.5022
L407.9890 268.5022
" />
<text x="300.9890" y="270.7522"
textLength="9.8000" font-size="2.0000" lengthAdjust="spacingAndGlyphs"
text-anchor="start" opacity="0" stroke-opacity="0">Sheet: /</text>
<g class="stroked-text"><desc>Sheet: /</desc>
<path d="M301.3749 270.6167
L301.5892 270.6881
" />
<path d="M301.5892 270.6881
L301.9463 270.6881
" />
<path d="M301.9463 270.6881
L302.0892 270.6167
" />
<path d="M302.0892 270.6167
L302.1606 270.5452
" />
<path d="M302.1606 270.5452
L302.2320 270.4024
" />
<path d="M302.2320 270.4024
L302.2320 270.2595
" />
<path d="M302.2320 270.2595
L302.1606 270.1167
" />
<path d="M302.1606 270.1167
L302.0892 270.0452
" />
<path d="M302.0892 270.0452
L301.9463 269.9738
" />
<path d="M301.9463 269.9738
L301.6606 269.9024
" />
<path d="M301.6606 269.9024
L301.5177 269.8309
" />
<path d="M301.5177 269.8309
L301.4463 269.7595
" />
<path d="M301.4463 269.7595
L301.3749 269.6167
" />
<path d="M301.3749 269.6167
L301.3749 269.4738
" />
<path d="M301.3749 269.4738
L301.4463 269.3309
" />
<path d="M301.4463 269.3309
L301.5177 269.2595
" />
<path d="M301.5177 269.2595
L301.6606 269.1881
" />
<path d="M301.6606 269.1881
L302.0177 269.1881
" />
<path d="M302.0177 269.1881
L302.2320 269.2595
" />
<path d="M302.8749 270.6881
L302.8749 269.1881
" />
<path d="M303.5178 270.6881
L303.5178 269.9024
" />
<path d="M303.5178 269.9024
L303.4463 269.7595
" />
<path d="M303.4463 269.7595
L303.3035 269.6881
" />
<path d="M303.3035 269.6881
L303.0892 269.6881
" />
<path d="M303.0892 269.6881
L302.9463 269.7595
" />
<path d="M302.9463 269.7595
L302.8749 269.8309
" />
<path d="M304.8034 270.6167
L304.6606 270.6881
" />
<path d="M304.6606 270.6881
L304.3749 270.6881
" />
<path d="M304.3749 270.6881
L304.2320 270.6167
" />
<path d="M304.2320 270.6167
L304.1606 270.4738
" />
<path d="M304.1606 270.4738
L304.1606 269.9024
" />
<path d="M304.1606 269.9024
L304.2320 269.7595
" />
<path d="M304.2320 269.7595
L304.3749 269.6881
" />
<path d="M304.3749 269.6881
L304.6606 269.6881
" />
<path d="M304.6606 269.6881
L304.8034 269.7595
" />
<path d="M304.8034 269.7595
L304.8749 269.9024
" />
<path d="M304.8749 269.9024
L304.8749 270.0452
" />
<path d="M304.8749 270.0452
L304.1606 270.1881
" />
<path d="M306.0891 270.6167
L305.9463 270.6881
" />
<path d="M305.9463 270.6881
L305.6606 270.6881
" />
<path d="M305.6606 270.6881
L305.5177 270.6167
" />
<path d="M305.5177 270.6167
L305.4463 270.4738
" />
<path d="M305.4463 270.4738
L305.4463 269.9024
" />
<path d="M305.4463 269.9024
L305.5177 269.7595
" />
<path d="M305.5177 269.7595
L305.6606 269.6881
" />
<path d="M305.6606 269.6881
L305.9463 269.6881
" />
<path d="M305.9463 269.6881
L306.0891 269.7595
" />
<path d="M306.0891 269.7595
L306.1606 269.9024
" />
<path d="M306.1606 269.9024
L306.1606 270.0452
" />
<path d="M306.1606 270.0452
L305.4463 270.1881
" />
<path d="M306.5891 269.6881
L307.1605 269.6881
" />
<path d="M306.8034 269.1881
L306.8034 270.4738
" />
<path d="M306.8034 270.4738
L306.8748 270.6167
" />
<path d="M306.8748 270.6167
L307.0177 270.6881
" />
<path d="M307.0177 270.6881
L307.1605 270.6881
" />
<path d="M307.6605 270.5452
L307.7319 270.6167
" />
<path d="M307.7319 270.6167
L307.6605 270.6881
" />
<path d="M307.6605 270.6881
L307.5891 270.6167
" />
<path d="M307.5891 270.6167
L307.6605 270.5452
" />
<path d="M307.6605 270.5452
L307.6605 270.6881
" />
<path d="M307.6605 269.7595
L307.7319 269.8309
" />
<path d="M307.7319 269.8309
L307.6605 269.9024
" />
<path d="M307.6605 269.9024
L307.5891 269.8309
" />
<path d="M307.5891 269.8309
L307.6605 269.7595
" />
<path d="M307.6605 269.7595
L307.6605 269.9024
" />
<path d="M310.5891 269.1167
L309.3034 271.0452
" />
</g></g>
<g style="fill:none; 
stroke:#840000; stroke-width:0.3000; stroke-opacity:1; 
stroke-linecap:round; stroke-linejoin:round;">
<text x="300.9890" y="267.7522"
textLength="0.9000" font-size="2.0000" lengthAdjust="spacingAndGlyphs"
text-anchor="start" opacity="0" stroke-opacity="0"></text>
<g class="stroked-text"><desc></desc>
</g></g>
<g style="fill:none; 
stroke:#840000; stroke-width:0.1524; stroke-opacity:1; 
stroke-linecap:round; stroke-linejoin:round;">
<text x="300.9890" y="264.7522"
textLength="0.4572" font-size="2.0000" lengthAdjust="spacingAndGlyphs"
text-anchor="start" opacity="0" stroke-opacity="0"></text>
<g class="stroked-text"><desc></desc>
</g><text x="300.9890" y="261.7522"
textLength="0.4572" font-size="2.0000" lengthAdjust="spacingAndGlyphs"
text-anchor="start" opacity="0" stroke-opacity="0"></text>
<g class="stroked-text"><desc></desc>
</g><text x="300.9890" y="258.7522"
textLength="0.4572" font-size="2.0000" lengthAdjust="spacingAndGlyphs"
text-anchor="start" opacity="0" stroke-opacity="0"></text>
<g class="stroked-text"><desc></desc>
</g><text x="300.9890" y="255.7522"
textLength="0.4572" font-size="2.0000" lengthAdjust="spacingAndGlyphs"
text-anchor="start" opacity="0" stroke-opacity="0"></text>
<g class="stroked-text"><desc></desc>
</g><path d="M319.9890 278.5022
L319.9890 281.5022
" />
<path d="M383.9890 278.5022
L383.9890 285.0022
" />
</g> 
</svg>
